<?xml version="1.0" encoding="UTF-8"?>
<svg width="345px" height="102px" viewBox="0 0 345 102" version="1.1" xmlns="http://www.w3.org/2000/svg" xmlns:xlink="http://www.w3.org/1999/xlink">
    <title>Untitled</title>
    <g id="Page-1" stroke="none" stroke-width="1" fill="none" fill-rule="evenodd">
        <path d="M49.3440486,0 L54.7015625,3.13800718 C57.0334819,4.505787 62.3887898,7.64241385 67.6827285,10.742235 L68.420709,11.1743477 L68.420709,11.1743477 L69.1560305,11.6048925 C75.2674582,15.1832049 80.9079242,18.484647 81.2276079,18.670392 L81.5414372,18.8505646 L82.0570139,18.5502769 C83.1927769,17.8821366 84.5302874,17.4692409 85.9201027,17.3491258 C90.4556829,16.9512445 94.5877683,19.9015718 95.760892,24.3758596 C95.9850557,25.2091581 96,25.3367804 96,26.6505394 C96,28.1369639 95.8879181,28.8201185 95.4769512,29.9386905 C94.6101847,32.2358919 92.7795139,34.2403127 90.6873188,35.178712 L90.2912961,35.3588847 L90.2910847,56.2394914 C90.2910563,56.3897965 90.2910249,56.5388075 90.2909906,56.6865342 L90.2900475,59.2090293 C90.2899766,59.3416972 90.2899026,59.4731395 90.2898255,59.6033661 L90.2890448,60.7428432 C90.2889484,60.8658632 90.2888487,60.9876967 90.2887457,61.1083536 L90.2880881,61.8182534 C90.2877393,62.1662218 90.2873603,62.5037764 90.2869504,62.8311815 L90.2860889,63.4725373 C90.2761526,70.3803126 90.2509467,72.4609399 90.2016306,72.5270032 C90.1493258,72.5945679 82.7519215,76.8961902 73.7629546,82.0986758 L57.4139441,91.5502333 L57.4139441,92.5336757 C57.4139441,94.1627368 57.1001148,95.484003 56.3902629,96.8653268 C54.6044249,100.33365 50.7936409,102.383114 46.9679127,101.94019 C43.7922593,101.572338 41.0201008,99.620467 39.5854527,96.7527188 C38.950322,95.4915102 38.6738534,94.3654311 38.5991321,92.7889203 L38.5468273,91.7754491 L26.3000136,84.5985714 L14.0532,77.4216938 L13.4105972,77.7069672 C8.35944037,79.944111 2.40415637,77.3466218 0.521180751,72.0840787 C-0.173726917,70.124701 -0.173726917,67.6323125 0.521180751,65.6729349 C1.33564243,63.4057622 2.92720515,61.5289637 4.99698391,60.3953773 L5.63211457,60.0425392 L5.63288408,37.0587022 C5.63293328,36.9249146 5.63298507,36.7923814 5.6330395,36.661092 L5.63382402,35.1446678 C5.63390067,35.0231649 5.63398023,34.9028646 5.63406275,34.7837567 L5.63488733,33.7437013 C5.63498823,33.6316549 5.6350923,33.5207699 5.63519958,33.4110361 L5.63588247,32.7663644 C5.63624376,32.4508529 5.63663518,32.1455162 5.63705848,31.8500759 L5.63794805,31.272308 C5.64743427,25.5308093 5.67056663,23.8042163 5.72178008,23.7527624 C5.77408496,23.7002121 14.9647993,18.3701042 26.143099,11.8989028 C37.3213987,5.42770141 46.4971688,0.105100719 46.5345294,0.0675647478 C46.5761598,0.0327099176 47.1332144,0.00432812727 47.816824,0.000451416561 L49.3440486,0 Z M47.7955025,90.0098234 C46.8977444,90.084966 46.4488654,90.2978702 45.8254223,90.9365827 C44.4413787,92.3768168 44.8528511,94.7813815 46.6483672,95.6830933 C47.4713121,96.0838541 48.5311654,96.1089016 49.3042348,95.7331884 C50.364088,95.2197136 51,94.1802403 51,92.9654342 C51,91.199582 49.5660809,89.8720618 47.7955025,90.0098234 Z M26.502793,63 C26.4574897,62.985996 24.7859123,63.8248389 22.9945328,64.7419933 L22.223856,65.1375959 C20.4289916,66.0613182 18.7295353,66.9527039 18.6319589,67.0372177 C18.5199451,67.1277682 18.5124775,67.2862316 18.5423478,68.2143741 C18.5871534,69.4141681 18.4751396,70.2819437 18.1465659,71.3081826 C18.0420197,71.6326552 17.982279,71.9571278 18.0046818,72.0325865 C18.0270845,72.1004994 23.1722503,75.1339409 29.9677522,79.0728873 C36.5317591,82.8835539 41.9233552,85.9924541 41.9457579,86 C41.9681607,86 42.266864,85.7811696 42.6029054,85.5095182 C43.2899231,84.9662152 43.8574596,84.6115591 44.4772691,84.3474535 C44.7012966,84.2493571 44.910389,84.1286232 44.9402593,84.0833479 C44.9671426,84.0426002 44.9940259,82.2048779 44.9991338,79.8574017 L44.9999015,79.3278725 L44.9999015,79.3278725 L45,79.0577956 C45,78.9542113 44.9999961,78.8527707 44.9999871,78.7534272 L44.9992994,77.4147162 C44.9992058,77.3351759 44.9991004,77.2574992 44.998982,77.1816394 L44.9981041,76.7479105 C44.9919461,74.3406536 44.9665656,74.0447625 44.8655835,73.8586881 C44.7535697,73.6323119 43.9022651,73.1116466 37.756443,69.5349021 C37.4365814,69.3481417 37.1150086,69.1604381 36.7935653,68.9728567 L36.1513972,68.5981728 C32.8400584,66.6664102 29.6736124,64.8235516 28.6833277,64.2452442 C27.5333197,63.5736614 26.5550661,63.0152667 26.502793,63 Z M74.3198725,66.0353876 C74.118826,65.9623375 74.074149,65.9769475 73.672056,66.3275883 C72.0041147,67.7447617 70.1500192,68.4314333 67.9534001,68.4314333 C66.5013977,68.4314333 65.3919189,68.1830627 64.1558552,67.5840513 C63.8952394,67.459866 63.6346236,67.3722058 63.5750543,67.3941209 C63.4464838,67.441847 60.7087435,68.9722643 57.8212746,70.5985582 L57.2011358,70.9480118 C54.0979459,72.6975634 51.0245407,74.4434626 51.0059253,74.4799877 C51.0035488,74.4841842 51.0019308,74.5268039 51.0009938,74.6029552 L51.000694,75.0747992 C51.010577,77.1664252 51.1231628,84.0596631 51.1548486,84.1591356 C51.1622948,84.1737457 51.3782336,84.2760159 51.6462956,84.3928962 C52.3760199,84.7143169 53.0982981,85.145313 53.6567605,85.598224 C53.9322687,85.8173746 54.1928845,86 54.2226692,86 C54.2599,86 60.3806488,82.5739469 67.8268153,78.3881719 C75.2655356,74.202397 81.4607461,70.7617338 81.5798847,70.7471238 C82.0787779,70.6740736 82.1457934,70.3161278 81.7139157,70.0531472 C81.4447641,69.8906551 79.8835497,69.0331955 78.2641051,68.1517835 L77.752205,67.8734292 C76.0490132,66.9481454 74.4252085,66.0745853 74.3198725,66.0353876 Z M6.74376665,68.781098 C6.70377288,69.9298967 7.35520493,70.8556758 8.5029322,71.2721122 C8.86550303,71.4020281 9.09446534,71.4494232 9.3198887,71.4649301 C9.54927052,71.4807093 9.77503966,71.4626795 10.1402268,71.372462 C12.0708367,70.9026116 12.841296,68.7366955 11.593259,67.274041 C9.9849907,65.3580375 6.82861325,66.3439269 6.74376665,68.781098 Z M44.6654085,53 C44.5344814,53 33.3038452,59.3299961 33.1147283,59.5136961 L33.1147283,59.5136961 L33.0685883,59.5598412 C32.7996667,59.8421556 33.0601753,59.9966741 38.7955099,63.5015171 C41.9523079,65.4227131 44.5853975,66.9994715 44.6508611,66.9994715 C44.7163246,67.0071256 44.8254305,66.930584 44.8836204,66.838734 C44.9717444,66.706258 44.9945017,66.1094792 44.9990317,62.1217028 L44.9999833,60.3388016 L44.9999833,60.3388016 L45,60.0035628 C45,59.8899279 44.9999946,59.7781923 44.9999833,59.668324 L44.9990317,57.8854229 C44.9945017,53.8976464 44.9717444,53.3008676 44.8836204,53.1683917 C44.8254305,53.0765417 44.7235983,53 44.6654085,53 Z M52.03545,54 C52.0173079,54 52.0043239,55.9718049 52.0008974,58.606797 L52.0007893,61.7975126 C52.0008839,61.8851083 52.0009882,61.9709332 52.0011026,62.0550215 L52.0019162,62.5389871 C52.0080593,65.5528718 52.0314618,66.0295686 52.1063499,65.9986393 C52.1630698,65.9757993 53.7299577,65.0469706 55.5946252,63.9354215 C57.4592926,62.8162591 58.9907306,61.8950438 58.9978206,61.8874304 C59.0120005,61.8722037 58.9552806,61.6057365 58.8772907,61.2859758 C58.8063908,60.9662151 58.707131,60.2962403 58.671681,59.8013726 C58.6007811,58.9943575 58.6078711,58.6060766 58.700041,57.8219016 L58.7284009,57.5706611 L55.3961054,55.7891372 C53.7779514,54.9203369 52.4094679,54.1885656 52.1004833,54.0312621 L52.0444452,54.0035455 C52.0392886,54.0011938 52.036268,54 52.03545,54 Z M81.8987434,34.0004253 L81.8505457,34.0042111 C81.8425904,34.0068873 81.819924,34.0172947 81.7837268,34.0348183 L81.5334897,34.1596316 C80.2361449,34.8156659 75.3371943,37.3684079 73.1624055,38.5209301 L72.5329488,38.8562935 C72.2810343,38.9916209 72.1304226,39.074726 72.1129822,39.0889991 C72.0342394,39.1502194 72.0059331,39.4670248 72.0008673,41.490682 L72.0007113,43.1631862 C72.001657,43.8214156 72.0034922,44.5861499 72.0058919,45.4747197 L72.0058919,45.4747197 L72.0288399,51.7637996 L72.68668,52.2172675 C73.9947109,53.1019017 74.6984468,53.8229901 75.43278,55.0049803 C76.2283075,56.2836112 76.5878248,57.5325065 76.618422,59.0861917 C76.6413699,59.8518835 76.6719671,60.1789751 76.7484602,60.2458802 C76.8020053,60.2979175 78.3777619,61.1676839 80.2518412,62.1712605 C82.1259206,63.174837 83.6787292,64 83.7016772,64 C83.7246251,64 83.8011181,63.9553966 83.8699618,63.9107932 C83.8740415,63.9078196 83.8779936,63.9039292 83.8818222,63.8986903 L83.8893159,63.8862863 C83.9601858,63.7465269 83.9858743,62.9951266 83.9950433,58.5123392 L83.995934,58.0351641 C83.9963511,57.7897934 83.9967266,57.5341519 83.9970646,57.2678081 L83.9979697,56.4362374 C83.9980586,56.3401773 83.9981438,56.24288 83.9982254,56.1443296 L83.9988668,55.2231102 C83.9989282,55.1168972 83.9989864,55.0093831 83.9990416,54.9005519 L83.999997,49.9532506 L83.999997,49.9532506 L84,49.5113277 C84,49.3570743 83.9999936,49.2039814 83.9999808,49.0520528 L83.9990508,46.4439351 C83.9989598,46.3061194 83.9988622,46.1694915 83.998758,46.0340552 L83.9980523,45.235768 C83.9915008,38.7030557 83.9681279,35.1688555 83.923507,35.1192962 C83.8852604,35.0746928 83.5639897,34.8962791 83.2121217,34.7252994 C82.8679031,34.5617536 82.4471914,34.3164349 82.2789067,34.1900586 C82.0953234,34.0488145 81.934688,33.9819094 81.8505457,34.0042111 Z M67.9217391,57 C67.3217391,57 66.226087,57.4844274 65.8217391,57.9295769 C65.4451193,58.3409724 65.1155348,59.0922994 65.0247191,59.7024183 C65.0085972,59.810728 65,59.9145876 65,60.0113054 C65,61.1765497 65.9782609,62.5774614 67.0217391,62.8785919 C67.6478261,63.0618888 68.626087,63.0357035 69.1478261,62.8131288 C70.2565217,62.3548866 71,61.2420129 71,60.0113054 C71,58.3223559 69.6434783,57 67.9217391,57 Z M12.3481899,33 C12.2566236,33 12.1574268,33.0445213 12.1116436,33.0964627 C12.0617135,33.1554212 12.0234518,39.0466639 12.007766,45.3152425 L12.0057249,46.1918279 C12.0035171,47.2160873 12.0019211,48.2436225 12.0009838,49.2509007 L12.0007356,52.9856409 C12.0044314,57.0434817 12.0222338,60.1106292 12.05823,60.1431329 C12.1040131,60.180234 12.2718846,60.2544361 12.4397562,60.3063776 C13.1570254,60.5289839 14.4923671,61.3006859 14.9349375,61.7458986 C15.2248974,62.042707 15.4461826,62.0723879 15.7895562,61.8720422 C15.9192751,61.7978401 17.781123,60.7886913 19.9176697,59.6385586 C22.0618469,58.4884258 23.85502,57.5089579 23.9084337,57.4570165 C23.971113,57.3960647 23.9926031,56.1084593 23.9982794,51.5954342 L23.9989322,50.9883229 C23.9990267,50.8840343 23.9991143,50.7781803 23.9991952,50.6707405 L23.9999851,48.5611099 L23.9999851,48.5611099 L24,48.1743321 C24,48.0644807 23.9999892,47.9550501 23.9999677,47.8460737 L23.9992082,46.562286 C23.999104,46.4574755 23.9989897,46.3532524 23.9988655,46.2496499 L23.9980032,45.6357502 C23.9918069,41.7982666 23.9718002,38.9532678 23.9465863,38.9287488 C23.8651032,38.8564018 21.385436,37.5732258 18.7398156,36.2191572 L18.127358,35.9059403 C15.2649577,34.4432311 12.4092341,33 12.3481899,33 Z M30.3331557,42 C30.2369107,42 30.1184554,42.0612094 30.0814381,42.1377213 C30.0370173,42.2295354 30.0074035,44.4101219 30,48.0214792 L30.0007709,50.0266307 C30.0008585,50.1090461 30.0009554,50.1896857 30.0010625,50.2685885 L30.0018343,50.7214759 C30.0075834,53.4617211 30.0305393,53.8067282 30.1184554,53.897586 C30.1850865,53.9664466 30.3109454,54.0123537 30.3997869,53.9970513 C30.4425624,53.9902503 30.7038873,53.8669078 31.1182359,53.6612561 L31.4566654,53.4921193 C34.1338732,52.1464522 40.9445088,48.5698138 40.9867359,48.4575965 C41.0163498,48.3887359 40.9941394,48.266317 40.9423152,48.1898052 C40.8758186,48.0921483 38.5493306,46.7035791 36.0917493,45.2664201 L35.2390824,44.7689097 C32.7795921,43.3370773 30.4346505,42 30.3331557,42 Z M65.663224,42 C65.567027,42 63.2804991,43.3193418 60.5795843,44.9353403 C57.8860692,46.5513389 55.5477429,47.9409415 55.3997476,48.019009 C55.0741579,48.1907577 54.9335623,48.4249603 55.0297593,48.6123225 C55.0667581,48.6825833 56.7095063,49.6974616 58.6778442,50.868475 C60.6461822,52.0394885 62.3111297,52.9997195 62.3703278,52.9997195 C62.4369257,53.0075262 62.681118,52.8513911 62.9253103,52.6562222 C63.4802928,52.2190439 64.6124571,51.6023101 65.2932356,51.3681074 C65.5818265,51.2744264 65.8556179,51.157325 65.9074163,51.1104845 C65.9626678,51.0667666 65.9937469,49.1630978 65.9991492,47.1211511 L65.9994312,45.9511717 C65.9952086,44.0157816 65.9674366,42.2524185 65.914816,42.1483284 C65.8778172,42.062454 65.7668207,42 65.663224,42 Z M47.6323143,48 L47.3316971,48.1967213 L47.0229551,48.3852459 L46.6735892,48.2131148 L46.3323481,48.0491803 L46.3973464,48.3852459 C46.4542199,48.6967213 46.4379703,48.7540984 46.218601,48.9754098 C45.9179839,49.295082 45.9261086,49.3442623 46.2511002,49.3442623 C46.5760917,49.3442623 46.6573396,49.4016393 46.8279602,49.7377049 C46.9010833,49.8770492 46.9823312,50 46.9985807,50 C47.0148303,50 47.0960782,49.8770492 47.1692013,49.7377049 C47.3398219,49.4016393 47.4210697,49.3442623 47.7541861,49.3442623 C48.0791776,49.3442623 48.0791776,49.2786885 47.7704357,48.9754098 L47.7067859,48.9119836 C47.5546774,48.7543007 47.5402333,48.6757741 47.5835655,48.3770492 L47.5835655,48.3770492 L47.6323143,48 Z M40.1849722,31 C40.0553036,31 33.4350005,35.3807081 33.1252366,35.6748754 C32.8947146,35.8895381 33.0027718,36.3268138 33.2837205,36.3268138 C33.341351,36.3268138 35.8698889,37.8294524 38.9026937,39.6580601 C41.9354985,41.4946183 44.478444,42.9972569 44.5648898,42.9972569 C44.5831629,42.9980325 44.6005274,42.9989217 44.6170345,42.9994722 L44.6640342,42.9996553 C44.9386309,42.9889422 44.9372038,42.7075495 44.9827109,39.2923386 C45.0115261,37.0185046 45.0043223,35.7146278 44.9610994,35.6271726 C44.9178765,35.5397175 44.7305774,35.41251 44.5432783,35.3330053 C43.0376817,34.7208192 41.2151173,32.9399143 40.5235513,31.4213748 C40.3866789,31.119257 40.2930294,31 40.1849722,31 Z M59.9299155,33.3448384 C55.6614313,30.8071725 55.5381538,30.7450889 55.4842199,31.2495179 C55.4456957,31.6064984 54.6598015,32.7240027 53.9663654,33.4224428 C53.288339,34.1053621 52.3021188,34.8038022 51.5085198,35.1685432 C51.2311454,35.3004708 51,35.4479192 51,35.5022424 L51,35.5022424 L51.0008429,40.4794376 C51.0047655,42.6020033 51.0258339,42.8328967 51.1309824,42.9057079 C51.3236035,43.0531564 51.4314713,43.0298751 51.5932731,42.820343 C51.6780264,42.7116968 54.2668543,41.307056 57.8419025,39.4290281 C61.4400652,37.5432397 63.9595496,36.1696407 63.9826641,36.0920363 C64.0057786,36.0221923 64.0057786,35.913546 63.9826641,35.8514624 C63.9518447,35.7816184 62.1335013,34.6563537 59.9299155,33.3448384 Z M51.7257116,8.17454161 C51.4153136,7.96930972 51.2083816,7.94650617 51.0827444,8.0985298 C51.0286887,8.16802632 51.0055219,9.43206865 51.0019476,12.6516805 L51.0014497,13.6093863 C51.0012187,13.7025008 51.0010166,13.7951105 51.0008425,13.887157 L51.0009877,15.7172889 C51.0051449,17.6684172 51.0217733,19.0594333 51.0384018,19.0822369 C51.0531826,19.1202428 51.3192381,19.2722664 51.6222456,19.4166889 C52.4204118,19.8043491 53.0116461,20.2452176 53.787641,21.012937 C54.7336158,21.9554835 55.5613438,23.2552855 55.8791322,24.2966473 C55.9308652,24.4638733 55.997379,24.6539028 56.0269407,24.7147123 C56.0565024,24.7755217 59.1013588,26.6682159 62.7965728,28.9105644 C66.4917869,31.1529129 69.5735954,32.9923988 69.6401092,33 C69.7140135,33 69.9283359,32.9011846 70.1204871,32.7795657 C70.1943913,32.7345217 70.4913264,32.5633127 70.9399523,32.3064875 L71.2267601,32.1424428 C71.9864333,31.7082684 73.0553082,31.0997047 74.1926129,30.4536042 C76.2323711,29.2906235 77.9395599,28.2872675 77.9691217,28.2188569 C78.0134642,28.1428451 77.9986834,27.9376132 77.9247791,27.679173 C77.7547992,27.0786797 77.7547992,24.9579501 77.9247791,24.494278 C77.9912929,24.2890461 78.0208547,24.1066178 77.9839025,24.0458083 C77.9469504,23.9773977 76.9418522,23.3388985 75.7519932,22.6243874 C74.5547439,21.9098764 68.7236961,18.4057318 62.7891824,14.8407777 C56.8546687,11.2758236 51.8735202,8.27335697 51.7257116,8.17454161 Z M44.6770737,8 C44.4968743,8 14.4486215,25.5731821 14.1633057,25.8414165 C13.9455648,26.0483401 13.9455648,26.1249785 14.1633057,26.3319021 C14.2534054,26.4162044 16.9939382,27.9642998 20.2525444,29.7653019 C23.9165992,31.7962191 26.2216501,33.0300971 26.2967331,32.9994418 C26.3643079,32.9764503 26.536999,32.8844842 26.6796569,32.7925182 C26.8223148,32.7005521 29.6829805,31.0451629 33.024178,29.1138756 L33.2944669,28.9579315 C36.5226826,27.0946696 39.1832237,25.5327916 39.2635829,25.4582245 C39.3762075,25.3585946 39.4212574,25.2283094 39.4212574,25.0290496 C39.413749,24.6458576 39.9168058,23.5039457 40.4649123,22.6609234 C41.2758097,21.4193815 42.6423219,20.208495 43.9487677,19.5800603 C44.2190668,19.449775 44.5118909,19.3424813 44.6019906,19.3424813 C44.6170072,19.3424813 44.631458,19.3427751 44.6453643,19.3430596 L44.7043388,19.3432528 C44.9569108,19.334518 44.9940673,19.1306521 44.9992603,16.1188338 L44.9999587,15.4115784 C44.9999953,15.3277558 45.0000207,15.2421491 45.0000379,15.1547203 L45,13.701896 C45,13.586444 44.9999765,13.4727624 44.9999292,13.3608537 L44.9993585,12.7106985 C44.9953464,9.77612053 44.9723198,8.23560123 44.9248479,8.14561294 C44.879798,8.06897455 44.7671734,8 44.6770737,8 Z M47.0167408,25.1387272 C46.3643491,25.3602721 45.6517366,25.994696 45.3205223,26.6391901 C44.2766956,28.7136556 45.9227301,31.1808597 48.2311931,30.9895255 C48.5624073,30.9593149 49.0140632,30.8586127 49.2549462,30.7478402 C49.7868964,30.5162251 50.4292514,29.8818012 50.7203184,29.3077987 C51.0214223,28.7136556 51.0916799,27.6965633 50.8708704,27.0319288 C50.6701344,26.4176453 50.0578899,25.6925894 49.4356086,25.3300614 C48.8334008,24.9776037 47.7594637,24.8970419 47.0167408,25.1387272 Z M86.1782609,24.118465 C84.8086957,24.5226885 84,25.5919249 84,27.0001875 C84,29.2560155 86.3086957,30.6903571 88.3173913,29.6602391 C89.2565217,29.1908182 90,28.0042266 90,27.0001875 C90,26.374293 89.7130435,25.6440828 89.2434783,25.1094646 C88.4217391,24.1445439 87.3130435,23.7924783 86.1782609,24.118465 Z" id="Combined-Shape" fill="#FFFFFF" fill-rule="nonzero" transform="translate(48.000000, 51.000000) scale(-1, 1) rotate(-180.000000) translate(-48.000000, -51.000000) "></path>
        <text id="Keploy" stroke="#FFFFFF" stroke-width="3" fill="#FFFFFF" fill-rule="nonzero" font-family="Helvetica" font-size="72" font-weight="normal">
            <tspan x="122.425781" y="76">Keploy</tspan>
        </text>
    </g>
</svg>