<?xml version="1.0" encoding="UTF-8"?>
<svg width="297px" height="94px" viewBox="0 0 297 94" version="1.1" xmlns="http://www.w3.org/2000/svg" xmlns:xlink="http://www.w3.org/1999/xlink">
    <title>Untitled</title>
    <defs>
        <linearGradient x1="24.6125754%" y1="44.5839793%" x2="73.0351624%" y2="50.3690287%" id="linearGradient-1">
            <stop stop-color="#4285F4" offset="0%"></stop>
            <stop stop-color="#3F51B5" offset="100%"></stop>
        </linearGradient>
        <linearGradient x1="24.6757065%" y1="45.5778715%" x2="74.4824701%" y2="54.5819677%" id="linearGradient-2">
            <stop stop-color="#4285F4" offset="0%"></stop>
            <stop stop-color="#3F51B5" offset="100%"></stop>
        </linearGradient>
    </defs>
    <g id="Page-1" stroke="none" stroke-width="1" fill="none" fill-rule="evenodd">
        <path d="M45.746045,0 L50.7129069,2.89188897 C52.5152053,3.94273295 56.2655597,6.12651638 60.3069686,8.47908835 L61.0228425,8.89580399 C61.5016563,9.17452085 61.9831494,9.4547889 62.4646238,9.73503819 L63.1864839,10.1552018 C63.4268744,10.2951208 63.666923,10.4348389 63.9062923,10.5741598 L64.6220253,10.9907347 C70.0885174,14.1723314 75.0172793,17.040006 75.3047615,17.2060475 L75.5957074,17.372089 L76.0736899,17.0953532 C77.126637,16.4796161 78.3666206,16.0991044 79.6550953,15.98841 C83.859956,15.6217351 87.6907435,18.3406642 88.7783269,22.4640274 C88.9861454,23.2319692 89,23.349582 89,24.560301 C89,25.9301432 88.8960908,26.5597171 88.5150902,27.5905579 C87.7115254,29.7075866 86.014341,31.554798 84.0747018,32.4195974 L83.7075558,32.5856388 L83.7071315,52.7757089 C83.7070906,52.9149142 83.7070466,53.0528365 83.7069996,53.189486 L83.7060594,55.1450628 C83.7059808,55.269243 83.705899,55.3922021 83.7058139,55.5139504 L83.705264,56.2299939 C83.7051657,56.3469405 83.7050641,56.462697 83.7049591,56.5772737 L83.7042886,57.2506596 C83.70417,57.3605586 83.704048,57.4692985 83.7039226,57.5768897 L83.703128,58.208734 C83.6942033,64.8031285 83.6708251,66.7768279 83.6244284,66.8386108 C83.5759374,66.9008763 76.7179273,70.8651164 68.3844058,75.6595639 L53.2275107,84.3698228 L53.2275107,85.2761325 C53.2275107,86.7774242 52.9365648,87.9950616 52.2784729,89.2680462 C50.6228523,92.4643446 47.0899379,94.3530663 43.543169,93.944881 C40.5990738,93.6058797 38.0290518,91.8070971 36.6990134,89.1642703 C36.1101944,88.00198 35.8538849,86.9642208 35.7846121,85.5113579 L35.7361211,84.5773747 L13.0284875,71.3494041 L12.4327411,71.6123031 C7.74989784,73.6739847 2.2288533,71.2802201 0.483177988,66.4304255 C-0.161059329,64.6247245 -0.161059329,62.3278174 0.483177988,60.5221164 C1.23825183,58.4327613 2.71376311,56.7031626 4.6326205,55.658485 L5.22143955,55.3333204 L5.22195486,34.7439022 C5.22199486,34.6109651 5.22203739,34.4793117 5.22208251,34.348931 L5.22296234,32.4873112 C5.2230351,32.369385 5.22311079,32.252677 5.22318947,32.1371763 L5.22398051,31.1299723 C5.22407781,31.0216172 5.22417832,30.9144366 5.22428209,30.8084197 L5.22494454,30.186195 C5.22529593,29.8819774 5.22567798,29.5880366 5.22609252,29.3040779 L5.22696545,28.7493831 C5.23583296,23.5143068 5.25729843,21.9370086 5.30456695,21.8898007 C5.35305793,21.8413719 13.873616,16.9293117 24.2368314,10.9656555 C34.6000467,5.00199934 43.1067502,0.0968575252 43.1413866,0.0622655519 C43.1797531,0.0303344996 43.6903226,0.00429841088 44.3189428,0.000481799901 L45.746045,0 Z M44.3295854,83.0081861 C43.5814537,83.070805 43.2073878,83.2482251 42.6878519,83.7804856 C41.5344822,84.9806807 41.8773759,86.9844846 43.3736393,87.7359111 C44.0594267,88.0698784 44.9426378,88.0907514 45.5868623,87.777657 C46.4700734,87.3497614 47,86.4835336 47,85.4711952 C47,83.9996516 45.8050674,82.8933849 44.3295854,83.0081861 Z M24.8729565,58 C24.842994,57.990867 24.0447614,58.3790228 22.9865975,58.9067474 L22.5186666,59.1407087 C20.4348487,60.1850575 17.7049972,61.5837939 17.5851471,61.6861553 C17.4814306,61.7688318 17.4745162,61.9135158 17.5021739,62.7609503 C17.5436605,63.8564144 17.4399441,64.6487312 17.1357091,65.5857319 C17.0389071,65.8819895 16.9835917,66.1782471 17.004335,66.2471442 C17.0250782,66.3091516 21.7891206,69.0788156 28.0812521,72.6752449 C34.1590362,76.1545492 39.1512548,78.9931103 39.1719981,79 C39.1927414,79 39.4693186,78.8001984 39.7804679,78.5521688 C40.4165955,78.0561095 40.9420922,77.7322931 41.5159899,77.4911532 C41.7234228,77.401587 41.9170268,77.2913516 41.9446846,77.2500133 C41.9694811,77.2129514 41.9942777,75.5477221 41.9991427,73.4161563 L41.9999025,72.9165072 L41.9999025,72.9165072 L42,72.6614655 C42,72.5599683 41.9999959,72.4607253 41.9999862,72.3636839 L41.9992307,71.0665921 C41.995607,68.3945824 41.9758838,68.0967797 41.8755403,67.9144544 L41.8691788,67.9028987 C41.8100866,67.8041279 41.5937185,67.6403681 40.8239621,67.1748016 L40.6283927,67.0571498 C39.6986925,66.500549 38.0865582,65.569823 35.2930027,63.9666498 C31.7389856,61.9204055 27.9567923,59.7501464 26.8919701,59.1369621 C25.8271478,58.5237778 24.9213575,58.0139391 24.8729565,58 Z M68.8153646,60.0336182 C68.6272888,59.9642206 68.5854942,59.9781001 68.2093427,60.3112089 C66.6490105,61.6575236 64.9145341,62.3098616 62.8596324,62.3098616 C61.5013075,62.3098616 60.463408,62.0739096 59.3070904,61.5048487 C59.0632885,61.3868727 58.8194866,61.3035955 58.7637604,61.3244148 C58.506027,61.4215715 47.0403718,67.9865906 47.005543,68.0559883 C47.0032716,68.0600616 47.0017408,68.1022414 47.0008734,68.1775706 L47.0007589,68.6439349 C47.0106949,70.6578366 47.1153296,77.1570394 47.1448584,77.2511789 C47.1518241,77.2650584 47.3538314,77.3622151 47.6045991,77.4732514 C48.2872444,77.7786011 48.962924,78.1880473 49.4853566,78.6183128 C49.7430901,78.8265058 49.986892,79 50.014755,79 C50.0495839,79 55.7754457,75.7452495 62.7412143,71.7687633 C69.7000172,67.7922772 75.4955367,64.5236471 75.606989,64.5097676 C76.0736955,64.44037 76.1363874,64.1003214 75.7323728,63.8504898 C75.3562213,63.619876 72.2824625,61.9157733 70.3595014,60.8635979 L69.952684,60.6413763 C69.3114409,60.2917721 68.8671613,60.0531919 68.8153646,60.0336182 Z M6.62651442,63.3865021 C6.58965742,64.445199 7.18999676,65.2983679 8.2477062,65.6821426 C8.58184011,65.8018691 8.79284459,65.8455468 9.00058769,65.8598375 C9.21197877,65.8743792 9.42004053,65.8577634 9.75658551,65.7746219 C11.5357751,65.3416224 12.2458062,63.3455821 11.0956544,61.9976456 C9.61352482,60.2319169 6.70470638,61.1404817 6.62651442,63.3865021 Z M41.6932911,49 C41.5732746,49 31.2785248,54.8778535 31.1051676,55.0484321 C30.8051263,55.3469446 30.7784559,55.3256223 36.3125508,58.7514088 C39.2062823,60.5353764 41.6199477,61.9995092 41.679956,61.9995092 C41.7399642,62.0066167 41.839978,61.9355423 41.8933187,61.850253 C41.9695196,61.7342131 41.9924021,61.2345313 41.9982372,58.070041 L41.9989892,57.5750962 C41.9990947,57.4891794 41.9991907,57.4015257 41.9992778,57.3120997 L41.9999828,55.8333205 L41.9999828,55.8333205 L42,55.5033083 C42,55.3913299 41.9999944,55.2813377 41.9999828,55.1732962 L41.9992778,53.694517 C41.9991907,53.6050909 41.9990947,53.5174373 41.9989892,53.4315204 L41.9982372,52.9365757 C41.9924021,49.7720853 41.9695196,49.2724035 41.8933187,49.1563637 C41.839978,49.0710744 41.7466318,49 41.6932911,49 Z M48.03545,50 C48.0188328,50 48.006543,51.5164122 48.0019614,53.6274359 L48.0010115,54.1450262 C48.0008785,54.2330367 48.0007582,54.3218805 48.0006508,54.4114988 L48.0008653,57.2102294 C48.0042979,59.9461167 48.0193116,60.7670059 48.0694655,60.9534924 L48.0789768,60.9806935 C48.0872344,60.9980106 48.0963314,61.0025456 48.1063499,60.9987527 C48.1630698,60.977816 49.7299577,60.1263897 51.5946252,59.1074697 C53.4592926,58.0815708 54.9907306,57.2371235 54.9978206,57.2301446 C55.0120005,57.2161867 54.9552806,56.9719251 54.8772907,56.6788111 C54.8063908,56.3856972 54.707131,55.7715536 54.671681,55.3179249 C54.6007811,54.578161 54.6078711,54.2222369 54.700041,53.5034098 L54.7284009,53.273106 L51.3961054,51.6400424 C49.5668879,50.7397638 48.0567199,50 48.03545,50 Z M76.0738481,31.0003969 L76.0296669,31.0039303 C75.8473585,31.0663751 67.2367924,35.6387196 67.103567,35.7497325 C67.0312572,35.8069735 67.0053462,36.1036132 67.0007703,38.0014368 L67.0008469,39.683376 C67.0017581,40.2675974 67.0033558,40.938719 67.005401,41.7097384 L67.005401,41.7097384 L67.0264365,47.5795463 L67.6294566,48.002783 C68.828485,48.8284416 69.4735762,49.5014574 70.146715,50.6046483 C70.8759486,51.7980371 71.2055061,52.9636727 71.2335535,54.4137789 C71.2545891,55.1284246 71.2826366,55.4337101 71.3527552,55.4961548 C71.4018382,55.544723 72.8462817,56.3565049 74.5641878,57.2931764 C76.2820939,58.2298479 77.7055018,59 77.7265374,59 C77.747573,59 77.8176916,58.9583702 77.8807984,58.9167403 C77.887246,58.9119553 77.8933463,58.9046265 77.8991179,58.8926887 L77.9058871,58.876019 C77.9080917,58.8696369 77.9102449,58.8623852 77.9123478,58.8541317 L77.9185073,58.8262338 C77.9675988,58.5716987 77.9872634,57.6365183 77.9950397,54.0769887 L77.9959337,53.6278795 C77.9963522,53.3966345 77.9967288,53.155255 77.9970675,52.9032948 L77.9979742,52.1152263 C77.9980632,52.0240371 77.9981485,51.9316227 77.9982301,51.8379666 L77.9988716,50.9610893 C77.9989329,50.8598342 77.9989911,50.7572879 77.9990462,50.6534337 L77.9999971,45.9037705 L77.9999971,45.9037705 L78,45.4772392 C78,45.325692 77.9999935,45.1753449 77.9999805,45.0262022 L77.9990353,42.4726233 C77.9989428,42.3380858 77.9988435,42.204778 77.9987375,42.0727044 L77.9980198,41.2951045 C77.9917558,35.3204351 77.9703534,32.0904449 77.9298814,32.0446764 C77.8948221,32.0030466 77.6003239,31.8365272 77.2777783,31.6769461 C76.9622445,31.5243034 76.5765921,31.2953392 76.4223311,31.177388 C76.2540465,31.0455602 76.1067974,30.9831154 76.0296669,31.0039303 Z M12.3191741,30 C12.2352383,30 12.1443079,30.0414508 12.10234,30.0898101 C12.0561282,30.1452332 12.0208203,35.7362188 12.0067076,41.6352869 L12.0048368,42.4795423 C12.0045494,42.6204126 12.0042743,42.7613165 12.0040116,42.9021834 L12.0025859,43.746376 C12.0023735,43.8868125 12.0021738,44.027071 12.001987,44.1670807 L12.0010213,45.0035902 C12.0008864,45.1423229 12.0007647,45.2806658 12.0006562,45.4185483 L12.0006706,48.6032125 C12.0040502,52.3832401 12.020369,55.2409197 12.0533775,55.2711927 C12.0953454,55.3057351 12.2492276,55.3748198 12.4031098,55.4231791 C13.0606066,55.6304333 14.2846699,56.3489145 14.6903594,56.7634228 C14.956156,57.0397617 15.1590007,57.0673956 15.4737599,56.8808669 C15.5926688,56.8117821 17.2993627,55.8722299 19.2578639,54.8014166 C21.2233597,53.7306034 22.8671017,52.818685 22.9160642,52.7703257 C22.9730577,52.7140344 22.9928998,51.5340028 22.9982942,47.4138997 L22.9989424,46.8336733 C22.9990363,46.7338748 22.9991231,46.632515 22.9992034,46.5295726 L22.9999853,44.501083 L22.9999853,44.501083 L23,44.1278265 C23,44.0209021 22.9999892,43.914406 22.9999676,43.8083736 L22.9992076,42.5605077 C22.9991033,42.4587515 22.998989,42.3576007 22.9988649,42.2570908 L22.998003,41.6620052 C22.9921382,38.1410355 22.973929,35.5424791 22.9510375,35.5198696 C22.8795366,35.4553905 20.7935775,34.3578816 18.4880881,33.1583281 L17.9081809,32.8568526 C17.8111137,32.8064319 17.7139251,32.7559688 17.6167448,32.7055306 L17.0348028,32.4037384 C14.61912,31.1520044 12.3709863,30 12.3191741,30 Z M62.4347826,52 C61.9347826,52 61.0217391,52.4036895 60.6847826,52.7746474 C60.3709327,53.117477 60.096279,53.7435828 60.0205992,54.2520153 C60.0071644,54.3422733 60,54.428823 60,54.5094212 C60,55.4804581 60.8152174,56.6478845 61.6847826,56.8988266 C62.2065217,57.051574 63.0217391,57.0297529 63.4565217,56.844274 C64.3804348,56.4624055 65,55.5350107 65,54.5094212 C65,53.1019632 63.8695652,52 62.4347826,52 Z M28.3028689,39 C28.2153734,39 28.1076867,39.0561087 28.0740346,39.1262445 C28.0336521,39.2104075 28.0067304,41.2092784 28,44.5196893 L28.0007759,46.4262716 C28.0008645,46.5040732 28.0009625,46.5801143 28.0010709,46.6544353 L28.0018531,47.0800474 C28.0073793,49.5137841 28.0286774,49.8237871 28.1076867,49.9061205 C28.1682605,49.9692427 28.2826776,50.0113242 28.3634426,49.9972971 C28.4921124,49.9766689 30.7960065,48.7864362 33.1171831,47.5633565 L33.6734925,47.2697687 C35.8912183,46.0975511 37.965771,44.9788726 37.9879418,44.9194635 C38.0148634,44.8563412 37.9946722,44.7441239 37.9475592,44.6739881 C37.8885386,44.5865881 35.8710856,43.3712048 33.6963668,42.0876713 L33.1504531,41.7659815 C30.779663,40.3711553 28.4004599,39 28.3028689,39 Z M60.69384,39 C60.6063882,39 58.5277264,40.1994016 56.0723493,41.6684912 L55.8364472,41.8099856 C53.4886261,43.2178417 51.4936081,44.4031452 51.3634069,44.4718264 C51.0674162,44.6279615 50.9396021,44.840873 51.0270539,45.0112023 C51.0606892,45.0750757 52.5540966,45.9976924 54.3434948,47.06225 L54.5486724,47.1841945 C56.2471633,48.1926654 57.6485514,48.999745 57.700298,48.999745 C57.7608415,49.006842 57.9828345,48.864901 58.2048275,48.6874747 C58.7093571,48.2900399 59.7385974,47.7293728 60.3574869,47.5164613 C60.6198423,47.4312967 60.8687435,47.3248409 60.915833,47.2822586 C60.9670868,47.241704 60.9954594,45.4405658 60.9994981,43.5417962 L60.9996681,42.6863722 C60.9965386,40.8902617 60.9712511,39.2311611 60.92256,39.134844 C60.8889247,39.0567764 60.7880188,39 60.69384,39 Z M44.6323143,44 L44.3316971,44.1967213 L44.0229551,44.3852459 L43.6735892,44.2131148 L43.3323481,44.0491803 L43.3973464,44.3852459 C43.4542199,44.6967213 43.4379703,44.7540984 43.218601,44.9754098 C42.9179839,45.295082 42.9261086,45.3442623 43.2511002,45.3442623 C43.5760917,45.3442623 43.6573396,45.4016393 43.8279602,45.7377049 C43.9010833,45.8770492 43.9823312,46 43.9985807,46 C44.0148303,46 44.0960782,45.8770492 44.1692013,45.7377049 C44.3398219,45.4016393 44.4210697,45.3442623 44.7541861,45.3442623 C45.0791776,45.3442623 45.0791776,45.2786885 44.7704357,44.9754098 L44.7067859,44.9119836 C44.5546774,44.7543007 44.5402333,44.6757741 44.5835655,44.3770492 L44.5835655,44.3770492 L44.6323143,44 Z M37.5862245,30 C37.5283169,30 36.0582732,30.8664451 34.532932,31.783452 L34.0509897,32.0737623 C32.6091436,32.9440255 31.2458542,33.7825882 31.1148002,33.8957295 C30.9034884,34.0746151 31.0025408,34.4390115 31.2600771,34.4390115 C31.2648796,34.4390115 31.2884012,34.4493603 31.3292873,34.4693211 L31.4338109,34.5218404 C32.0258884,34.8247017 34.0519544,35.9220951 36.4108025,37.2150501 C39.1908736,38.7455153 41.521907,39.997714 41.601149,39.997714 C41.9445306,40.0109648 41.9379272,40.063968 41.9841516,36.9102821 C41.9925561,36.3073716 41.9976178,35.7862929 41.9993369,35.353662 L41.9990095,34.6998863 C41.9957077,34.1822777 41.9841516,33.8924168 41.9643411,33.8559772 C41.9247202,33.7830979 41.7530293,33.6770916 41.5813385,33.6108377 C40.2012082,33.1006827 38.5305242,31.6165952 37.8965887,30.3511457 C37.7711223,30.0993809 37.6852769,30 37.5862245,30 Z M55.242999,31.1494352 C51.3028597,28.8232414 51.189065,28.7663315 51.1392799,29.2287248 C51.1037191,29.5559569 50.3782783,30.5803358 49.7381834,31.2205726 C49.1123129,31.8465819 48.2019558,32.4868187 47.4694029,32.8211646 C47.2133649,32.9420982 47,33.0772593 47,33.1270555 L47,33.1270555 L47.0008362,37.7198393 C47.0046043,39.6373773 47.0243538,39.8471707 47.1209068,39.9135656 C47.2987109,40.0487267 47.3982812,40.0273855 47.5476367,39.8353144 C47.6258705,39.735722 50.0155579,38.4481347 53.3156023,36.7266091 C56.6369833,34.9979697 58.9626611,33.7388373 58.9839976,33.6676999 C59.0053341,33.6036762 59.0053341,33.5040838 58.9839976,33.4471739 C58.955549,33.3831502 57.2770781,32.3516576 55.242999,31.1494352 Z M48.6719552,8.16057828 C48.3845496,7.97176494 48.192946,7.95078568 48.0766151,8.09064742 C48.026848,8.15422093 48.0053576,9.30432365 48.0018615,12.2292308 L48.0013423,13.1606354 C48.0011142,13.2520117 48.0009165,13.3428597 48.0007482,13.433114 L48.0006752,14.9794813 C48.0040795,16.8374451 48.0198183,18.1742125 48.0355572,18.1956579 C48.0492432,18.2306234 48.2955908,18.3704851 48.5761533,18.5033538 C49.3151961,18.8600012 49.8626353,19.2656002 50.5811491,19.971902 C51.4570517,20.8390448 52.2234664,22.0348626 52.517715,22.9929155 C52.5656159,23.1467634 52.6272028,23.3215906 52.6545748,23.3775353 C52.6819467,23.43348 55.5012582,25.1747586 58.9227526,27.2377193 L59.1847868,27.3956553 C62.4887462,29.3863578 65.1993526,30.9931862 65.2593604,31 C65.3277903,31 65.526237,30.9090899 65.7041547,30.7972005 C65.8889154,30.6853111 67.5791336,29.7272582 69.4746416,28.6573159 C71.3633065,27.5873736 72.944037,26.6642861 72.9714089,26.6013484 C73.0124669,26.5314175 72.9987809,26.3426041 72.930351,26.1048392 C72.7729623,25.5523853 72.7729623,23.6013141 72.930351,23.1747358 C72.9919379,22.9859224 73.0193099,22.8180884 72.9850949,22.7621437 C72.95088,22.6992059 72.0202335,22.1117866 70.9185123,21.4544364 C69.809948,20.7970863 64.4108298,17.5732732 58.9159096,14.2935155 C53.4209895,11.0137577 48.808815,8.25148841 48.6719552,8.16057828 Z M41.7083246,8 C41.6301995,8 35.336436,11.7249523 28.7835471,15.626194 L27.553298,16.3588764 C20.8545773,20.3497385 14.2737772,24.2931831 14.1475019,24.4141031 C13.9508327,24.6044729 13.9508327,24.6749802 14.1475019,24.86535 C14.2288823,24.942908 16.7042023,26.3671558 19.6474594,28.0240777 C22.9569283,29.8925216 25.0389097,31.0276894 25.1067267,30.9994865 C25.167762,30.9783343 25.3237411,30.8937255 25.4525933,30.8091167 C25.5814456,30.7245079 28.1652727,29.2015499 31.1831286,27.4247655 C34.2077661,25.6479812 36.7441213,24.1320739 36.81872,24.0615666 C36.9204455,23.9699071 36.9611357,23.8500446 36.9611357,23.6667256 C36.954354,23.314189 37.4087278,22.26363 37.9037918,21.4880495 C38.6362152,20.345831 39.8704843,19.2318154 41.0504999,18.6536554 C41.294641,18.533793 41.5591273,18.4350828 41.6405076,18.4350828 L41.6405076,18.4350828 L41.6818529,18.43566 C41.9529692,18.4412933 41.9933769,18.4352941 41.9991395,15.5733614 L41.9999248,14.8981464 C41.9999673,14.817778 41.9999977,14.7355869 42.0000189,14.6515318 L42,13.2457443 C42,13.1359879 41.9999773,13.0279707 41.9999317,12.9216953 L41.9993811,12.3049652 C41.9956479,9.6239245 41.9748454,8.21645746 41.9321207,8.1339639 C41.8914305,8.06345658 41.789705,8 41.7083246,8 Z M43.6806173,23.115606 C43.1369576,23.3002268 42.5431138,23.8289133 42.2671019,24.3659918 C41.3972463,26.094713 42.7689417,28.1507164 44.6926609,27.9912713 C44.9686728,27.9660957 45.3450526,27.8821772 45.5457885,27.7898669 C45.9890804,27.5968543 46.5243761,27.0681677 46.766932,26.5898322 C47.0178519,26.094713 47.0763999,25.2471361 46.892392,24.693274 C46.725112,24.1813711 46.2149083,23.5771578 45.6963405,23.2750512 C45.1945007,22.9813364 44.2995531,22.9142016 43.6806173,23.115606 Z M79.8152174,22.0987208 C78.673913,22.4355738 78,23.3266041 78,24.5001563 C78,26.380013 79.923913,27.5752976 81.5978261,26.7168659 C82.3804348,26.3256818 83,25.3368555 83,24.5001563 C83,23.9785775 82.7608696,23.370069 82.3695652,22.9245538 C81.6847826,22.1204533 80.7608696,21.8270652 79.8152174,22.0987208 Z" id="Combined-Shape" fill="#3F51B5" fill-rule="nonzero" transform="translate(44.500000, 47.000000) scale(-1, 1) rotate(-180.000000) translate(-44.500000, -47.000000) "></path>
        <text id="Keploy" stroke="url(#linearGradient-2)" stroke-width="3" fill="url(#linearGradient-1)" fill-rule="nonzero" font-family="Helvetica" font-size="63" font-weight="normal">
            <tspan x="102.185059" y="72">Keploy</tspan>
        </text>
    </g>
</svg>